<svg id="Layer_1" data-name="Layer 1" xmlns="http://www.w3.org/2000/svg" viewBox="0 0 483 374.19"><defs><style>.cls-1{fill:#433765;}.cls-2{fill:#fff;}.cls-3{fill:#ee2e4a;}.cls-4{fill:none;stroke:#4c4168;stroke-miterlimit:10;}</style></defs><title>Artboard 1 copy</title><path class="cls-1" d="M349.11,147.92c-58-23.84-105.31-23.2-127.31-29.62C162,100.59,154.48,58.05,86.38,57.69c-40.81-.22-51.23-9.25-55.81-12.46s-8.71-6.09-6.88-1.37c6.72,18.47,30.9,99.67,25.15,187.19l40.78,57.64c14-5.66,29.53-10.05,45.47-11.5,56.84-7.33,87.1-5.5,123.54-17.42,13.53-4.58,32.78-11,91.46-40.8,38.05-15.58,129.27-24.29,127.89-33.46C478,180.47,437.64,188.72,349.11,147.92Z"/><path class="cls-2" d="M230.66,266.72l-123-207.33a135.73,135.73,0,0,0-21.3-1.7c-40.81-.22-51.23-9.25-55.81-12.46-1-.68-1.91-1.33-2.79-1.91L164.36,273.89C190.85,271.3,211.12,270.18,230.66,266.72Z"/><path class="cls-2" d="M230.5,120.3,303,241.9c12.09-5.55,27.35-12.91,47.07-22.93,38.05-15.58,129.27-24.29,127.89-33.46,0-5-40.34,3.21-128.87-37.59C297.89,126.86,255,124.9,230.5,120.3Z"/><path class="cls-3" d="M478,185.51c0-4.42-30.93,1.36-98.07-24.53-40.32-.53-143.39-3.76-190.73-3-48.38.8-112.45-1.53-141.42,3.33a452.83,452.83,0,0,1,1.08,69.72l2.64,3.73c104.92-26,285.23-21.73,295.4-20.85a15.69,15.69,0,0,1,8,3.2C395.32,202.69,479.3,194.31,478,185.51Z"/><path class="cls-4" d="M221.8,118.3c22,6.42,69.35,5.78,127.31,29.62C437.64,188.72,478,180.47,478,185.51c1.38,9.17-89.84,17.88-127.89,33.46-58.68,29.8-77.93,36.22-91.46,40.8-36.44,11.92-66.7,10.09-123.54,17.42C84.66,281.78,38.82,315.7,28.28,326.7c46.3-115.52,4.58-257.63-4.59-282.84C21.86,39.14,26,42,30.57,45.23s15,12.24,55.81,12.46C154.48,58.05,162,100.59,221.8,118.3Z"/><path class="cls-4" d="M48.84,231.05c-2.1,32-8.18,64.76-20.56,95.65,7.21-7.52,30.94-25.77,61.34-38Z"/><path class="cls-1" d="M29.59,18.75c-.37-8.53-5.79-15.21-12.1-14.94S6.37,11.23,6.75,19.75a18,18,0,0,0,4.66,11.71l5.12,339.7,13-.05L24.48,32.34C27.76,29.52,29.84,24.45,29.59,18.75Z"/></svg>